<svg version="1.1" viewBox="0.0 0.0 960.0 540.0" fill="none" stroke="none" stroke-linecap="square" stroke-miterlimit="10" xmlns:xlink="http://www.w3.org/1999/xlink" xmlns="http://www.w3.org/2000/svg"><clipPath id="p.0"><path d="m0 0l960.0 0l0 540.0l-960.0 0l0 -540.0z" clip-rule="nonzero"/></clipPath><g clip-path="url(#p.0)"><path fill="#ffffff" d="m0 0l960.0 0l0 540.0l-960.0 0z" fill-rule="evenodd"/><path fill="#ffffff" d="m303.50394 185.88452l23.653534 0l0 25.291336l-23.653534 0z" fill-rule="evenodd"/><path stroke="#595959" stroke-width="1.0" stroke-linejoin="round" stroke-linecap="butt" d="m303.50394 185.88452l23.653534 0l0 25.291336l-23.653534 0z" fill-rule="evenodd"/><path fill="#ffffff" d="m335.50394 185.88452l23.653534 0l0 25.291336l-23.653534 0z" fill-rule="evenodd"/><path stroke="#595959" stroke-width="1.0" stroke-linejoin="round" stroke-linecap="butt" d="m335.50394 185.88452l23.653534 0l0 25.291336l-23.653534 0z" fill-rule="evenodd"/><path fill="#ffffff" d="m367.50394 185.88452l23.653534 0l0 25.291336l-23.653534 0z" fill-rule="evenodd"/><path stroke="#595959" stroke-width="1.0" stroke-linejoin="round" stroke-linecap="butt" d="m367.50394 185.88452l23.653534 0l0 25.291336l-23.653534 0z" fill-rule="evenodd"/><path fill="#ffffff" d="m303.50394 217.88452l23.653534 0l0 25.291336l-23.653534 0z" fill-rule="evenodd"/><path stroke="#595959" stroke-width="1.0" stroke-linejoin="round" stroke-linecap="butt" d="m303.50394 217.88452l23.653534 0l0 25.291336l-23.653534 0z" fill-rule="evenodd"/><path fill="#ffffff" d="m335.50394 217.88452l23.653534 0l0 25.291336l-23.653534 0z" fill-rule="evenodd"/><path stroke="#595959" stroke-width="1.0" stroke-linejoin="round" stroke-linecap="butt" d="m335.50394 217.88452l23.653534 0l0 25.291336l-23.653534 0z" fill-rule="evenodd"/><path fill="#ffffff" d="m367.50394 217.88452l23.653534 0l0 25.291336l-23.653534 0z" fill-rule="evenodd"/><path stroke="#595959" stroke-width="1.0" stroke-linejoin="round" stroke-linecap="butt" d="m367.50394 217.88452l23.653534 0l0 25.291336l-23.653534 0z" fill-rule="evenodd"/><path fill="#ffffff" d="m303.50394 249.88452l23.653534 0l0 25.29132l-23.653534 0z" fill-rule="evenodd"/><path stroke="#595959" stroke-width="1.0" stroke-linejoin="round" stroke-linecap="butt" d="m303.50394 249.88452l23.653534 0l0 25.29132l-23.653534 0z" fill-rule="evenodd"/><path fill="#ffffff" d="m335.50394 249.88452l23.653534 0l0 25.29132l-23.653534 0z" fill-rule="evenodd"/><path stroke="#595959" stroke-width="1.0" stroke-linejoin="round" stroke-linecap="butt" d="m335.50394 249.88452l23.653534 0l0 25.29132l-23.653534 0z" fill-rule="evenodd"/><path fill="#ffffff" d="m367.50394 249.88452l23.653534 0l0 25.29132l-23.653534 0z" fill-rule="evenodd"/><path stroke="#595959" stroke-width="1.0" stroke-linejoin="round" stroke-linecap="butt" d="m367.50394 249.88452l23.653534 0l0 25.29132l-23.653534 0z" fill-rule="evenodd"/><path fill="#ffffff" d="m303.50394 281.88452l23.653534 0l0 25.29132l-23.653534 0z" fill-rule="evenodd"/><path stroke="#595959" stroke-width="1.0" stroke-linejoin="round" stroke-linecap="butt" d="m303.50394 281.88452l23.653534 0l0 25.29132l-23.653534 0z" fill-rule="evenodd"/><path fill="#ffffff" d="m335.50394 281.88452l23.653534 0l0 25.29132l-23.653534 0z" fill-rule="evenodd"/><path stroke="#595959" stroke-width="1.0" stroke-linejoin="round" stroke-linecap="butt" d="m335.50394 281.88452l23.653534 0l0 25.29132l-23.653534 0z" fill-rule="evenodd"/><path fill="#ffffff" d="m367.50394 281.88452l23.653534 0l0 25.29132l-23.653534 0z" fill-rule="evenodd"/><path stroke="#595959" stroke-width="1.0" stroke-linejoin="round" stroke-linecap="butt" d="m367.50394 281.88452l23.653534 0l0 25.29132l-23.653534 0z" fill-rule="evenodd"/><path fill="#ffffff" d="m303.50394 313.88452l23.653534 0l0 25.29132l-23.653534 0z" fill-rule="evenodd"/><path stroke="#595959" stroke-width="1.0" stroke-linejoin="round" stroke-linecap="butt" d="m303.50394 313.88452l23.653534 0l0 25.29132l-23.653534 0z" fill-rule="evenodd"/><path fill="#ffffff" d="m335.50394 313.88452l23.653534 0l0 25.29132l-23.653534 0z" fill-rule="evenodd"/><path stroke="#595959" stroke-width="1.0" stroke-linejoin="round" stroke-linecap="butt" d="m335.50394 313.88452l23.653534 0l0 25.29132l-23.653534 0z" fill-rule="evenodd"/><path fill="#ffffff" d="m367.50394 313.88452l23.653534 0l0 25.29132l-23.653534 0z" fill-rule="evenodd"/><path stroke="#595959" stroke-width="1.0" stroke-linejoin="round" stroke-linecap="butt" d="m367.50394 313.88452l23.653534 0l0 25.29132l-23.653534 0z" fill-rule="evenodd"/><path fill="#000000" fill-opacity="0.0" d="m187.86089 174.8084l53.007874 0l0 48.472443l-53.007874 0z" fill-rule="evenodd"/><path fill="#595959" d="m201.03276 206.8484l0 -16.078125l0.765625 0.8125l-4.71875 0l0 -1.53125l5.6875 0l0 16.796875l-1.734375 0z" fill-rule="nonzero"/><path fill="#000000" fill-opacity="0.0" d="m187.86089 302.8084l53.007874 0l0 48.472443l-53.007874 0z" fill-rule="evenodd"/><path fill="#595959" d="m197.81401 330.4265l0 -1.234375l8.90625 -11.140625l1.921875 0l-8.828125 11.140625l-0.9375 -0.296875l13.515625 0l0 1.53125l-14.578125 0zm9.484375 4.421875l0 -4.421875l0.046875 -1.53125l0 -3.890625l1.6875 0l0 9.84375l-1.734375 0z" fill-rule="nonzero"/><path fill="#000000" fill-opacity="0.0" d="m187.86089 238.8084l53.007874 0l0 48.472458l-53.007874 0z" fill-rule="evenodd"/><path fill="#595959" d="m203.12651 270.989q-1.828125 0 -3.453125 -0.578125q-1.609375 -0.59375 -2.59375 -1.578125l0.84375 -1.375q0.8125 0.84375 2.1875 1.40625q1.375 0.546875 3.015625 0.546875q2.09375 0 3.203125 -0.90625q1.109375 -0.921875 1.109375 -2.453125q0 -1.546875 -1.09375 -2.453125q-1.078125 -0.90625 -3.4375 -0.90625l-1.203125 0l0 -1.28125l5.1875 -6.4999847l0.234375 0.671875l-9.359375 0l0 -1.53125l10.8125 0l0 1.21875l-5.1875 6.4999847l-0.84375 -0.546875l0.65625 0q3.015625 0 4.515625 1.34375q1.5 1.34375 1.5 3.453125q0 1.421875 -0.671875 2.546875q-0.671875 1.125 -2.03125 1.78125q-1.359375 0.640625 -3.390625 0.640625z" fill-rule="nonzero"/><path fill="#000000" fill-opacity="0.0" d="m179.86089 270.8084l53.007874 0l0 48.472443l-53.007874 0z" fill-rule="evenodd"/><path fill="#595959" d="m190.29839 297.08276l0 -1.484375l6.296875 0l0 1.484375l-6.296875 0zm8.379974 5.765625l0 -1.21875l6.984375 -6.84375q0.953125 -0.9375 1.4375 -1.640625q0.484375 -0.71875 0.640625 -1.328125q0.171875 -0.625 0.171875 -1.1875q0 -1.46875 -1.0 -2.296875q-0.984375 -0.84375 -2.9375 -0.84375q-1.484375 0 -2.625 0.453125q-1.140625 0.453125 -1.953125 1.421875l-1.21875 -1.0625q0.984375 -1.15625 2.515625 -1.765625q1.53125 -0.625 3.4375 -0.625q1.703125 0 2.9375 0.546875q1.25 0.53125 1.9375 1.5625q0.6875 1.03125 0.6875 2.421875q0 0.8125 -0.234375 1.609375q-0.21875 0.78125 -0.8125 1.671875q-0.59375 0.875 -1.71875 1.96875l-6.40625 6.296875l-0.484375 -0.671875l10.421875 0l0 1.53125l-11.78125 0z" fill-rule="nonzero"/><path fill="#000000" fill-opacity="0.0" d="m179.86089 206.8084l53.007874 0l0 48.472443l-53.007874 0z" fill-rule="evenodd"/><path fill="#595959" d="m197.00151 238.98903q-2.234375 0 -3.78125 -0.984375q-1.53125 -1.0 -2.328125 -2.875q-0.78125 -1.890625 -0.78125 -4.53125q0 -2.859375 0.96875 -4.78125q0.96875 -1.9375 2.6875 -2.921875q1.734375 -0.984375 4.015625 -0.984375q1.140625 0 2.171875 0.21875q1.03125 0.203125 1.8125 0.6875l-0.6875 1.390625q-0.65625 -0.4375 -1.5 -0.609375q-0.828125 -0.1875 -1.765625 -0.1875q-2.71875 0 -4.34375 1.734375q-1.609375 1.734375 -1.609375 5.15625q0 0.53125 0.0625 1.3125q0.0625 0.78125 0.28125 1.546875l-0.609375 -0.453125q0.265625 -1.25 1.03125 -2.125q0.765625 -0.875 1.921875 -1.328125q1.15625 -0.46875 2.515625 -0.46875q1.6875 0 2.953125 0.625q1.28125 0.625 2.0 1.765625q0.71875 1.125 0.71875 2.65625q0 1.5625 -0.75 2.734375q-0.734375 1.15625 -2.046875 1.796875q-1.3125 0.625 -2.9375 0.625zm-0.078125 -1.453125q1.203125 0 2.125 -0.4375q0.921875 -0.453125 1.453125 -1.28125q0.53125 -0.828125 0.53125 -1.9375q0 -1.65625 -1.140625 -2.640625q-1.140625 -0.984375 -3.09375 -0.984375q-1.296875 0 -2.25 0.484375q-0.953125 0.484375 -1.515625 1.3125q-0.546875 0.828125 -0.546875 1.875q0 0.90625 0.5 1.734375q0.5 0.828125 1.5 1.359375q1.0 0.515625 2.4375 0.515625zm13.100327 1.453125q-1.796875 0 -3.4375 -0.578125q-1.625 -0.59375 -2.578125 -1.578125l0.84375 -1.375q0.78125 0.84375 2.15625 1.40625q1.390625 0.546875 3.0 0.546875q2.125 0 3.234375 -0.953125q1.125 -0.953125 1.125 -2.484375q0 -1.078125 -0.515625 -1.859375q-0.515625 -0.78125 -1.734375 -1.203125q-1.21875 -0.4375 -3.359375 -0.4375l-3.578125 0l0.859375 -8.421875l9.203125 0l0 1.53125l-8.5 0l0.890625 -0.84375l-0.75 7.0625l-0.890625 -0.859375l3.140625 0q2.546875 0 4.078125 0.625q1.546875 0.625 2.21875 1.734375q0.6875 1.109375 0.6875 2.609375q0 1.40625 -0.671875 2.578125q-0.671875 1.15625 -2.015625 1.828125q-1.34375 0.671875 -3.40625 0.671875z" fill-rule="nonzero"/><path fill="#000000" fill-opacity="0.0" d="m243.86089 174.8084l53.00789 0l0 48.472443l-53.00789 0z" fill-rule="evenodd"/><path fill="#595959" d="m257.03278 206.8484l0 -16.078125l0.765625 0.8125l-4.7187653 0l0 -1.53125l5.6875153 0l0 16.796875l-1.734375 0z" fill-rule="nonzero"/><path fill="#000000" fill-opacity="0.0" d="m243.86089 302.8084l53.00789 0l0 48.472443l-53.00789 0z" fill-rule="evenodd"/><path fill="#595959" d="m259.12653 334.989q-1.828125 0 -3.4531403 -0.578125q-1.609375 -0.59375 -2.59375 -1.578125l0.84375 -1.375q0.8125 0.84375 2.1875153 1.40625q1.375 0.546875 3.015625 0.546875q2.09375 0 3.203125 -0.90625q1.109375 -0.921875 1.109375 -2.453125q0 -1.546875 -1.09375 -2.453125q-1.078125 -0.90625 -3.4375 -0.90625l-1.203125 0l0 -1.28125l5.1875 -6.5l0.234375 0.671875l-9.35939 0l0 -1.53125l10.812515 0l0 1.21875l-5.1875 6.5l-0.84375 -0.546875l0.65625 0q3.015625 0 4.515625 1.34375q1.5 1.34375 1.5 3.453125q0 1.421875 -0.671875 2.546875q-0.671875 1.125 -2.03125 1.78125q-1.359375 0.640625 -3.390625 0.640625z" fill-rule="nonzero"/><path fill="#000000" fill-opacity="0.0" d="m243.86089 238.8084l53.00789 0l0 48.472458l-53.00789 0z" fill-rule="evenodd"/><path fill="#595959" d="m253.79839 270.8484l0 -1.21875l6.9843903 -6.84375q0.953125 -0.9375 1.4375 -1.640625q0.484375 -0.71875 0.640625 -1.328125q0.171875 -0.625 0.171875 -1.1875q0 -1.46875 -1.0 -2.296875q-0.984375 -0.84373474 -2.9375 -0.84373474q-1.484375 0 -2.625 0.453125q-1.1406403 0.45310974 -1.9531403 1.4218597l-1.21875 -1.0625q0.984375 -1.1562347 2.515625 -1.7656097q1.5312653 -0.625 3.4375153 -0.625q1.703125 0 2.9375 0.546875q1.25 0.53125 1.9375 1.5624847q0.6875 1.03125 0.6875 2.421875q0 0.8125 -0.234375 1.609375q-0.21875 0.78125 -0.8125 1.671875q-0.59375 0.875 -1.71875 1.96875l-6.4062653 6.296875l-0.484375 -0.671875l10.42189 0l0 1.53125l-11.781265 0z" fill-rule="nonzero"/><path fill="#000000" fill-opacity="0.0" d="m243.86089 270.8084l53.00789 0l0 48.472443l-53.00789 0z" fill-rule="evenodd"/><path fill="#595959" d="m260.7984 302.989q-1.9375 0 -3.453125 -1.015625q-1.5156403 -1.015625 -2.3750153 -2.921875q-0.859375 -1.921875 -0.859375 -4.609375q0 -2.6875 0.859375 -4.59375q0.859375 -1.90625 2.3750153 -2.921875q1.515625 -1.015625 3.453125 -1.015625q1.953125 0 3.453125 1.015625q1.515625 1.015625 2.390625 2.921875q0.875 1.90625 0.875 4.59375q0 2.6875 -0.875 4.609375q-0.875 1.90625 -2.390625 2.921875q-1.5 1.015625 -3.453125 1.015625zm0 -1.578125q1.5 0 2.59375 -0.796875q1.109375 -0.8125 1.734375 -2.359375q0.625 -1.546875 0.625 -3.8125q0 -2.25 -0.625 -3.796875q-0.625 -1.546875 -1.734375 -2.34375q-1.09375 -0.8125 -2.59375 -0.8125q-1.4375 0 -2.5625 0.8125q-1.125 0.796875 -1.75 2.34375q-0.62501526 1.546875 -0.62501526 3.796875q0 2.265625 0.62501526 3.8125q0.625 1.546875 1.75 2.359375q1.125 0.796875 2.5625 0.796875z" fill-rule="nonzero"/><path fill="#000000" fill-opacity="0.0" d="m243.86089 206.8084l53.00789 0l0 48.472443l-53.00789 0z" fill-rule="evenodd"/><path fill="#595959" d="m253.81401 234.42653l0 -1.234375l8.906265 -11.140625l1.921875 0l-8.82814 11.140625l-0.9375 -0.296875l13.51564 0l0 1.53125l-14.57814 0zm9.48439 4.421875l0 -4.421875l0.046875 -1.53125l0 -3.890625l1.6875 0l0 9.84375l-1.734375 0z" fill-rule="nonzero"/><path fill="#000000" fill-opacity="0.0" d="m171.86089 134.8084l64.0 0l0 48.472443l-64.0 0z" fill-rule="evenodd"/><path fill="#595959" d="m188.37651 166.8484l-7.4375 -16.796875l1.90625 0l6.96875 15.8125l-1.0625 0l7.015625 -15.8125l1.796875 0l-7.4375 16.796875l-1.75 0zm18.181946 0l0 -2.78125l-0.0625 -0.453125l0 -4.65625q0 -1.609375 -0.90625 -2.46875q-0.890625 -0.875 -2.671875 -0.875q-1.21875 0 -2.328125 0.40625q-1.109375 0.40625 -1.875 1.078125l-0.765625 -1.265625q0.953125 -0.8125 2.296875 -1.25q1.34375 -0.453125 2.84375 -0.453125q2.4375 0 3.765625 1.21875q1.34375 1.203125 1.34375 3.671875l0 7.828125l-1.640625 0zm-4.34375 0.125q-1.40625 0 -2.453125 -0.46875q-1.046875 -0.46875 -1.609375 -1.296875q-0.546875 -0.828125 -0.546875 -1.90625q0 -0.984375 0.46875 -1.78125q0.46875 -0.8125 1.53125 -1.296875q1.078125 -0.5 2.875 -0.5l4.34375 0l0 1.265625l-4.296875 0q-1.8125 0 -2.53125 0.65625q-0.703125 0.640625 -0.703125 1.609375q0 1.078125 0.84375 1.734375q0.84375 0.640625 2.34375 0.640625q1.4375 0 2.484375 -0.65625q1.046875 -0.671875 1.53125 -1.921875l0.375 1.1875q-0.46875 1.234375 -1.65625 1.984375q-1.1875 0.75 -3.0 0.75zm10.613083 -0.125l0 -17.8125l1.703125 0l0 17.8125l-1.703125 0z" fill-rule="nonzero"/><path fill="#000000" fill-opacity="0.0" d="m227.86089 134.8084l64.000015 0l0 48.472443l-64.000015 0z" fill-rule="evenodd"/><path fill="#595959" d="m239.59526 166.8484l0 -16.796875l1.78125 0l0 16.796875l-1.78125 0zm11.904236 0.125q-1.796875 0 -3.234375 -0.8125q-1.421875 -0.828125 -2.234375 -2.28125q-0.8125 -1.453125 -0.8125 -3.34375q0 -1.921875 0.8125 -3.359375q0.8125 -1.4375 2.234375 -2.234375q1.4375 -0.8125 3.234375 -0.8125q1.65625 0 2.953125 0.75q1.3125 0.734375 2.0937653 2.171875q0.78125 1.421875 0.78125 3.484375q0 2.046875 -0.765625 3.484375q-0.76564026 1.4375 -2.0781403 2.203125q-1.296875 0.75 -2.984375 0.75zm0.125 -1.515625q1.34375 0 2.40625 -0.609375q1.0625 -0.609375 1.671875 -1.71875q0.62501526 -1.125 0.62501526 -2.59375q0 -1.484375 -0.62501526 -2.59375q-0.609375 -1.109375 -1.671875 -1.71875q-1.0625 -0.609375 -2.40625 -0.609375q-1.328125 0 -2.390625 0.609375q-1.046875 0.609375 -1.671875 1.71875q-0.625 1.109375 -0.625 2.59375q0 1.46875 0.625 2.59375q0.625 1.109375 1.671875 1.71875q1.0625 0.609375 2.390625 0.609375zm4.7500153 1.390625l0 -3.796875l0.171875 -2.546875l-0.25 -2.53125l0 -8.9375l1.703125 0l0 17.8125l-1.625 0zm4.459442 0l5.328125 -6.90625l-0.015625 0.828125l-5.0625 -6.515625l1.90625 0l4.15625 5.390625l-0.71875 -0.015625l4.15625 -5.375l1.875 0l-5.125 6.59375l0.03125 -0.90625l5.375 6.90625l-1.9375 0l-4.390625 -5.765625l0.671875 0.109375l-4.328125 5.65625l-1.921875 0z" fill-rule="nonzero"/><path fill="#000000" fill-opacity="0.0" d="m315.8609 134.8084l64.0 0l0 48.472443l-64.0 0z" fill-rule="evenodd"/><path fill="#595959" d="m327.59528 166.8484l0 -16.796875l7.25 0q2.8125 0 4.359375 1.125q1.546875 1.125 1.546875 3.1875q0 1.375 -0.640625 2.3125q-0.640625 0.9375 -1.734375 1.421875q-1.078125 0.46875 -2.375 0.46875l0.40625 -0.578125q1.609375 0 2.765625 0.5q1.171875 0.484375 1.8125 1.46875q0.65625 0.96875 0.65625 2.40625q0 2.125 -1.578125 3.3125q-1.578125 1.171875 -4.734375 1.171875l-7.734375 0zm1.78125 -1.46875l5.921875 0q2.203125 0 3.375 -0.75q1.1875 -0.75 1.1875 -2.40625q0 -1.640625 -1.1875 -2.390625q-1.171875 -0.765625 -3.375 -0.765625l-6.125 0l0 -1.453125l5.546875 0q2.015625 0 3.125 -0.765625q1.125 -0.78125 1.125 -2.28125q0 -1.546875 -1.125 -2.296875q-1.109375 -0.765625 -3.125 -0.765625l-5.34375 0l0 13.875zm15.955322 1.46875l0 -12.59375l1.703125 0l0 12.59375l-1.703125 0zm0.875 -15.390625q-0.53125 0 -0.890625 -0.359375q-0.359375 -0.359375 -0.359375 -0.859375q0 -0.5 0.359375 -0.84375q0.359375 -0.359375 0.890625 -0.359375q0.53125 0 0.890625 0.34375q0.359375 0.328125 0.359375 0.84375q0 0.515625 -0.359375 0.875q-0.34375 0.359375 -0.890625 0.359375zm9.565338 15.515625q-1.78125 0 -2.75 -0.953125q-0.953125 -0.96875 -0.953125 -2.71875l0 -11.84375l1.71875 0l0 11.75q0 1.09375 0.5625 1.703125q0.5625 0.59375 1.609375 0.59375q1.140625 0 1.875 -0.640625l0.609375 1.21875q-0.515625 0.453125 -1.21875 0.671875q-0.703125 0.21875 -1.453125 0.21875zm-5.953125 -11.3125l0 -1.40625l7.796875 0l0 1.40625l-7.796875 0z" fill-rule="nonzero"/><path fill="#000000" fill-opacity="0.0" d="m363.8609 174.8084l53.007874 0l0 48.472443l-53.007874 0z" fill-rule="evenodd"/><path fill="#595959" d="m377.03278 206.8484l0 -16.078125l0.765625 0.8125l-4.71875 0l0 -1.53125l5.6875 0l0 16.796875l-1.734375 0z" fill-rule="nonzero"/><path fill="#000000" fill-opacity="0.0" d="m299.8609 206.8084l53.007874 0l0 48.472443l-53.007874 0z" fill-rule="evenodd"/><path fill="#595959" d="m313.03278 238.8484l0 -16.078125l0.765625 0.8125l-4.71875 0l0 -1.53125l5.6875 0l0 16.796875l-1.734375 0z" fill-rule="nonzero"/><path fill="#000000" fill-opacity="0.0" d="m331.8609 238.8084l53.007874 0l0 48.472458l-53.007874 0z" fill-rule="evenodd"/><path fill="#595959" d="m345.03278 270.8484l0 -16.07811l0.765625 0.8125l-4.71875 0l0 -1.53125l5.6875 0l0 16.79686l-1.734375 0z" fill-rule="nonzero"/><path fill="#000000" fill-opacity="0.0" d="m331.8609 302.8084l53.007874 0l0 48.472443l-53.007874 0z" fill-rule="evenodd"/><path fill="#595959" d="m345.03278 334.8484l0 -16.078125l0.765625 0.8125l-4.71875 0l0 -1.53125l5.6875 0l0 16.796875l-1.734375 0z" fill-rule="nonzero"/><path fill="#000000" fill-opacity="0.0" d="m363.8609 302.8084l53.007874 0l0 48.472443l-53.007874 0z" fill-rule="evenodd"/><path fill="#595959" d="m377.03278 334.8484l0 -16.078125l0.765625 0.8125l-4.71875 0l0 -1.53125l5.6875 0l0 16.796875l-1.734375 0z" fill-rule="nonzero"/><path fill="#000000" fill-opacity="0.0" d="m361.86615 270.8084l34.92914 0l0 48.472443l-34.92914 0z" fill-rule="evenodd"/><path fill="#595959" d="m378.80365 302.989q-1.9375 0 -3.453125 -1.015625q-1.515625 -1.015625 -2.375 -2.921875q-0.859375 -1.921875 -0.859375 -4.609375q0 -2.6875 0.859375 -4.59375q0.859375 -1.90625 2.375 -2.921875q1.515625 -1.015625 3.453125 -1.015625q1.953125 0 3.453125 1.015625q1.515625 1.015625 2.390625 2.921875q0.875 1.90625 0.875 4.59375q0 2.6875 -0.875 4.609375q-0.875 1.90625 -2.390625 2.921875q-1.5 1.015625 -3.453125 1.015625zm0 -1.578125q1.5 0 2.59375 -0.796875q1.109375 -0.8125 1.734375 -2.359375q0.625 -1.546875 0.625 -3.8125q0 -2.25 -0.625 -3.796875q-0.625 -1.546875 -1.734375 -2.34375q-1.09375 -0.8125 -2.59375 -0.8125q-1.4375 0 -2.5625 0.8125q-1.125 0.796875 -1.75 2.34375q-0.625 1.546875 -0.625 3.796875q0 2.265625 0.625 3.8125q0.625 1.546875 1.75 2.359375q1.125 0.796875 2.5625 0.796875z" fill-rule="nonzero"/><path fill="#000000" fill-opacity="0.0" d="m361.86615 238.8084l34.92914 0l0 48.472458l-34.92914 0z" fill-rule="evenodd"/><path fill="#595959" d="m378.80365 270.989q-1.9375 0 -3.453125 -1.015625q-1.515625 -1.015625 -2.375 -2.921875q-0.859375 -1.921875 -0.859375 -4.609375q0 -2.6875 0.859375 -4.59375q0.859375 -1.9062347 2.375 -2.9218597q1.515625 -1.015625 3.453125 -1.015625q1.953125 0 3.453125 1.015625q1.515625 1.015625 2.390625 2.9218597q0.875 1.90625 0.875 4.59375q0 2.6875 -0.875 4.609375q-0.875 1.90625 -2.390625 2.921875q-1.5 1.015625 -3.453125 1.015625zm0 -1.578125q1.5 0 2.59375 -0.796875q1.109375 -0.8125 1.734375 -2.359375q0.625 -1.546875 0.625 -3.8125q0 -2.25 -0.625 -3.796875q-0.625 -1.546875 -1.734375 -2.34375q-1.09375 -0.81248474 -2.59375 -0.81248474q-1.4375 0 -2.5625 0.81248474q-1.125 0.796875 -1.75 2.34375q-0.625 1.546875 -0.625 3.796875q0 2.265625 0.625 3.8125q0.625 1.546875 1.75 2.359375q1.125 0.796875 2.5625 0.796875z" fill-rule="nonzero"/><path fill="#000000" fill-opacity="0.0" d="m361.86615 206.8084l34.92914 0l0 48.472443l-34.92914 0z" fill-rule="evenodd"/><path fill="#595959" d="m378.80365 238.98903q-1.9375 0 -3.453125 -1.015625q-1.515625 -1.015625 -2.375 -2.921875q-0.859375 -1.921875 -0.859375 -4.609375q0 -2.6875 0.859375 -4.59375q0.859375 -1.90625 2.375 -2.921875q1.515625 -1.015625 3.453125 -1.015625q1.953125 0 3.453125 1.015625q1.515625 1.015625 2.390625 2.921875q0.875 1.90625 0.875 4.59375q0 2.6875 -0.875 4.609375q-0.875 1.90625 -2.390625 2.921875q-1.5 1.015625 -3.453125 1.015625zm0 -1.578125q1.5 0 2.59375 -0.796875q1.109375 -0.8125 1.734375 -2.359375q0.625 -1.546875 0.625 -3.8125q0 -2.25 -0.625 -3.796875q-0.625 -1.546875 -1.734375 -2.34375q-1.09375 -0.8125 -2.59375 -0.8125q-1.4375 0 -2.5625 0.8125q-1.125 0.796875 -1.75 2.34375q-0.625 1.546875 -0.625 3.796875q0 2.265625 0.625 3.8125q0.625 1.546875 1.75 2.359375q1.125 0.796875 2.5625 0.796875z" fill-rule="nonzero"/><path fill="#000000" fill-opacity="0.0" d="m329.86615 206.8084l34.92914 0l0 48.472443l-34.92914 0z" fill-rule="evenodd"/><path fill="#595959" d="m346.80365 238.98903q-1.9375 0 -3.453125 -1.015625q-1.515625 -1.015625 -2.375 -2.921875q-0.859375 -1.921875 -0.859375 -4.609375q0 -2.6875 0.859375 -4.59375q0.859375 -1.90625 2.375 -2.921875q1.515625 -1.015625 3.453125 -1.015625q1.953125 0 3.453125 1.015625q1.515625 1.015625 2.390625 2.921875q0.875 1.90625 0.875 4.59375q0 2.6875 -0.875 4.609375q-0.875 1.90625 -2.390625 2.921875q-1.5 1.015625 -3.453125 1.015625zm0 -1.578125q1.5 0 2.59375 -0.796875q1.109375 -0.8125 1.734375 -2.359375q0.625 -1.546875 0.625 -3.8125q0 -2.25 -0.625 -3.796875q-0.625 -1.546875 -1.734375 -2.34375q-1.09375 -0.8125 -2.59375 -0.8125q-1.4375 0 -2.5625 0.8125q-1.125 0.796875 -1.75 2.34375q-0.625 1.546875 -0.625 3.796875q0 2.265625 0.625 3.8125q0.625 1.546875 1.75 2.359375q1.125 0.796875 2.5625 0.796875z" fill-rule="nonzero"/><path fill="#ffffff" d="m543.50397 217.88452l23.653503 0l0 25.291336l-23.653503 0z" fill-rule="evenodd"/><path stroke="#595959" stroke-width="1.0" stroke-linejoin="round" stroke-linecap="butt" d="m543.50397 217.88452l23.653503 0l0 25.291336l-23.653503 0z" fill-rule="evenodd"/><path fill="#ffffff" d="m575.50397 217.88452l23.653503 0l0 25.291336l-23.653503 0z" fill-rule="evenodd"/><path stroke="#595959" stroke-width="1.0" stroke-linejoin="round" stroke-linecap="butt" d="m575.50397 217.88452l23.653503 0l0 25.291336l-23.653503 0z" fill-rule="evenodd"/><path fill="#ffffff" d="m607.50397 217.88452l23.653503 0l0 25.291336l-23.653503 0z" fill-rule="evenodd"/><path stroke="#595959" stroke-width="1.0" stroke-linejoin="round" stroke-linecap="butt" d="m607.50397 217.88452l23.653503 0l0 25.291336l-23.653503 0z" fill-rule="evenodd"/><path fill="#ffffff" d="m543.50397 313.88452l23.653503 0l0 25.29132l-23.653503 0z" fill-rule="evenodd"/><path stroke="#595959" stroke-width="1.0" stroke-linejoin="round" stroke-linecap="butt" d="m543.50397 313.88452l23.653503 0l0 25.29132l-23.653503 0z" fill-rule="evenodd"/><path fill="#ffffff" d="m575.50397 313.88452l23.653503 0l0 25.29132l-23.653503 0z" fill-rule="evenodd"/><path stroke="#595959" stroke-width="1.0" stroke-linejoin="round" stroke-linecap="butt" d="m575.50397 313.88452l23.653503 0l0 25.29132l-23.653503 0z" fill-rule="evenodd"/><path fill="#ffffff" d="m607.50397 313.88452l23.653503 0l0 25.29132l-23.653503 0z" fill-rule="evenodd"/><path stroke="#595959" stroke-width="1.0" stroke-linejoin="round" stroke-linecap="butt" d="m607.50397 313.88452l23.653503 0l0 25.29132l-23.653503 0z" fill-rule="evenodd"/><path fill="#ffffff" d="m543.50397 249.88452l23.653503 0l0 25.29132l-23.653503 0z" fill-rule="evenodd"/><path stroke="#595959" stroke-width="1.0" stroke-linejoin="round" stroke-linecap="butt" d="m543.50397 249.88452l23.653503 0l0 25.29132l-23.653503 0z" fill-rule="evenodd"/><path fill="#ffffff" d="m575.50397 249.88452l23.653503 0l0 25.29132l-23.653503 0z" fill-rule="evenodd"/><path stroke="#595959" stroke-width="1.0" stroke-linejoin="round" stroke-linecap="butt" d="m575.50397 249.88452l23.653503 0l0 25.29132l-23.653503 0z" fill-rule="evenodd"/><path fill="#ffffff" d="m607.50397 249.88452l23.653503 0l0 25.29132l-23.653503 0z" fill-rule="evenodd"/><path stroke="#595959" stroke-width="1.0" stroke-linejoin="round" stroke-linecap="butt" d="m607.50397 249.88452l23.653503 0l0 25.29132l-23.653503 0z" fill-rule="evenodd"/><path fill="#ffffff" d="m543.50397 185.88452l23.653503 0l0 25.291336l-23.653503 0z" fill-rule="evenodd"/><path stroke="#595959" stroke-width="1.0" stroke-linejoin="round" stroke-linecap="butt" d="m543.50397 185.88452l23.653503 0l0 25.291336l-23.653503 0z" fill-rule="evenodd"/><path fill="#ffffff" d="m575.50397 185.88452l23.653503 0l0 25.291336l-23.653503 0z" fill-rule="evenodd"/><path stroke="#595959" stroke-width="1.0" stroke-linejoin="round" stroke-linecap="butt" d="m575.50397 185.88452l23.653503 0l0 25.291336l-23.653503 0z" fill-rule="evenodd"/><path fill="#ffffff" d="m607.50397 185.88452l23.653503 0l0 25.291336l-23.653503 0z" fill-rule="evenodd"/><path stroke="#595959" stroke-width="1.0" stroke-linejoin="round" stroke-linecap="butt" d="m607.50397 185.88452l23.653503 0l0 25.291336l-23.653503 0z" fill-rule="evenodd"/><path fill="#ffffff" d="m543.50397 281.88452l23.653503 0l0 25.29132l-23.653503 0z" fill-rule="evenodd"/><path stroke="#595959" stroke-width="1.0" stroke-linejoin="round" stroke-linecap="butt" d="m543.50397 281.88452l23.653503 0l0 25.29132l-23.653503 0z" fill-rule="evenodd"/><path fill="#ffffff" d="m575.50397 281.88452l23.653503 0l0 25.29132l-23.653503 0z" fill-rule="evenodd"/><path stroke="#595959" stroke-width="1.0" stroke-linejoin="round" stroke-linecap="butt" d="m575.50397 281.88452l23.653503 0l0 25.29132l-23.653503 0z" fill-rule="evenodd"/><path fill="#ffffff" d="m607.50397 281.88452l23.653503 0l0 25.29132l-23.653503 0z" fill-rule="evenodd"/><path stroke="#595959" stroke-width="1.0" stroke-linejoin="round" stroke-linecap="butt" d="m607.50397 281.88452l23.653503 0l0 25.29132l-23.653503 0z" fill-rule="evenodd"/><path fill="#000000" fill-opacity="0.0" d="m699.8609 174.8084l53.007874 0l0 48.472443l-53.007874 0z" fill-rule="evenodd"/><path fill="#595959" d="m710.2984 201.08278l0 -1.484375l6.296875 0l0 1.484375l-6.296875 0zm8.379944 5.765625l0 -1.21875l6.984375 -6.84375q0.953125 -0.9375 1.4375 -1.640625q0.484375 -0.71875 0.640625 -1.328125q0.171875 -0.625 0.171875 -1.1875q0 -1.46875 -1.0 -2.296875q-0.984375 -0.84375 -2.9375 -0.84375q-1.484375 0 -2.625 0.453125q-1.140625 0.453125 -1.953125 1.421875l-1.21875 -1.0625q0.984375 -1.15625 2.515625 -1.765625q1.53125 -0.625 3.4375 -0.625q1.703125 0 2.9375 0.546875q1.25 0.53125 1.9375 1.5625q0.6875 1.03125 0.6875 2.421875q0 0.8125 -0.234375 1.609375q-0.21875 0.78125 -0.8125 1.671875q-0.59375 0.875 -1.71875 1.96875l-6.40625 6.296875l-0.484375 -0.671875l10.421875 0l0 1.53125l-11.78125 0z" fill-rule="nonzero"/><path fill="#000000" fill-opacity="0.0" d="m699.8609 302.8084l53.007874 0l0 48.472443l-53.007874 0z" fill-rule="evenodd"/><path fill="#595959" d="m717.0015 334.989q-2.234375 0 -3.78125 -0.984375q-1.53125 -1.0 -2.328125 -2.875q-0.78125 -1.890625 -0.78125 -4.53125q0 -2.859375 0.96875 -4.78125q0.96875 -1.9375 2.6875 -2.921875q1.734375 -0.984375 4.015625 -0.984375q1.140625 0 2.171875 0.21875q1.03125 0.203125 1.8125 0.6875l-0.6875 1.390625q-0.65625 -0.4375 -1.5 -0.609375q-0.828125 -0.1875 -1.765625 -0.1875q-2.71875 0 -4.34375 1.734375q-1.609375 1.734375 -1.609375 5.15625q0 0.53125 0.0625 1.3125q0.0625 0.78125 0.28125 1.546875l-0.609375 -0.453125q0.265625 -1.25 1.03125 -2.125q0.765625 -0.875 1.921875 -1.328125q1.15625 -0.46875 2.515625 -0.46875q1.6875 0 2.953125 0.625q1.28125 0.625 2.0 1.765625q0.71875 1.125 0.71875 2.65625q0 1.5625 -0.75 2.734375q-0.734375 1.15625 -2.046875 1.796875q-1.3125 0.625 -2.9375 0.625zm-0.078125 -1.453125q1.203125 0 2.125 -0.4375q0.921875 -0.453125 1.453125 -1.28125q0.53125 -0.828125 0.53125 -1.9375q0 -1.65625 -1.140625 -2.640625q-1.140625 -0.984375 -3.09375 -0.984375q-1.296875 0 -2.25 0.484375q-0.953125 0.484375 -1.515625 1.3125q-0.546875 0.828125 -0.546875 1.875q0 0.90625 0.5 1.734375q0.5 0.828125 1.5 1.359375q1.0 0.515625 2.4375 0.515625zm13.100342 1.453125q-1.796875 0 -3.4375 -0.578125q-1.625 -0.59375 -2.578125 -1.578125l0.84375 -1.375q0.78125 0.84375 2.15625 1.40625q1.390625 0.546875 3.0 0.546875q2.125 0 3.234375 -0.953125q1.125 -0.953125 1.125 -2.484375q0 -1.078125 -0.515625 -1.859375q-0.515625 -0.78125 -1.734375 -1.203125q-1.21875 -0.4375 -3.359375 -0.4375l-3.578125 0l0.859375 -8.421875l9.203125 0l0 1.53125l-8.5 0l0.890625 -0.84375l-0.75 7.0625l-0.890625 -0.859375l3.140625 0q2.546875 0 4.078125 0.625q1.546875 0.625 2.21875 1.734375q0.6875 1.109375 0.6875 2.609375q0 1.40625 -0.671875 2.578125q-0.671875 1.15625 -2.015625 1.828125q-1.34375 0.671875 -3.40625 0.671875z" fill-rule="nonzero"/><path fill="#000000" fill-opacity="0.0" d="m707.8609 238.8084l53.007874 0l0 48.472458l-53.007874 0z" fill-rule="evenodd"/><path fill="#595959" d="m723.1265 270.989q-1.828125 0 -3.453125 -0.578125q-1.609375 -0.59375 -2.59375 -1.578125l0.84375 -1.375q0.8125 0.84375 2.1875 1.40625q1.375 0.546875 3.015625 0.546875q2.09375 0 3.203125 -0.90625q1.109375 -0.921875 1.109375 -2.453125q0 -1.546875 -1.09375 -2.453125q-1.078125 -0.90625 -3.4375 -0.90625l-1.203125 0l0 -1.28125l5.1875 -6.4999847l0.234375 0.671875l-9.359375 0l0 -1.53125l10.8125 0l0 1.21875l-5.1875 6.4999847l-0.84375 -0.546875l0.65625 0q3.015625 0 4.515625 1.34375q1.5 1.34375 1.5 3.453125q0 1.421875 -0.671875 2.546875q-0.671875 1.125 -2.03125 1.78125q-1.359375 0.640625 -3.390625 0.640625z" fill-rule="nonzero"/><path fill="#000000" fill-opacity="0.0" d="m707.8609 270.8084l53.007874 0l0 48.472443l-53.007874 0z" fill-rule="evenodd"/><path fill="#595959" d="m717.814 298.4265l0 -1.234375l8.90625 -11.140625l1.921875 0l-8.828125 11.140625l-0.9375 -0.296875l13.515625 0l0 1.53125l-14.578125 0zm9.484375 4.421875l0 -4.421875l0.046875 -1.53125l0 -3.890625l1.6875 0l0 9.84375l-1.734375 0z" fill-rule="nonzero"/><path fill="#000000" fill-opacity="0.0" d="m707.8609 206.8084l53.007874 0l0 48.472443l-53.007874 0z" fill-rule="evenodd"/><path fill="#595959" d="m721.0328 238.8484l0 -16.078125l0.765625 0.8125l-4.71875 0l0 -1.53125l5.6875 0l0 16.796875l-1.734375 0z" fill-rule="nonzero"/><path fill="#000000" fill-opacity="0.0" d="m651.8609 174.8084l53.007874 0l0 48.472443l-53.007874 0z" fill-rule="evenodd"/><path fill="#595959" d="m668.7984 206.98903q-1.9375 0 -3.453125 -1.015625q-1.515625 -1.015625 -2.375 -2.921875q-0.859375 -1.921875 -0.859375 -4.609375q0 -2.6875 0.859375 -4.59375q0.859375 -1.90625 2.375 -2.921875q1.515625 -1.015625 3.453125 -1.015625q1.953125 0 3.453125 1.015625q1.515625 1.015625 2.390625 2.921875q0.875 1.90625 0.875 4.59375q0 2.6875 -0.875 4.609375q-0.875 1.90625 -2.390625 2.921875q-1.5 1.015625 -3.453125 1.015625zm0 -1.578125q1.5 0 2.59375 -0.796875q1.109375 -0.8125 1.734375 -2.359375q0.625 -1.546875 0.625 -3.8125q0 -2.25 -0.625 -3.796875q-0.625 -1.546875 -1.734375 -2.34375q-1.09375 -0.8125 -2.59375 -0.8125q-1.4375 0 -2.5625 0.8125q-1.125 0.796875 -1.75 2.34375q-0.625 1.546875 -0.625 3.796875q0 2.265625 0.625 3.8125q0.625 1.546875 1.75 2.359375q1.125 0.796875 2.5625 0.796875z" fill-rule="nonzero"/><path fill="#000000" fill-opacity="0.0" d="m651.8609 302.8084l53.007874 0l0 48.472443l-53.007874 0z" fill-rule="evenodd"/><path fill="#595959" d="m661.814 330.4265l0 -1.234375l8.90625 -11.140625l1.921875 0l-8.828125 11.140625l-0.9375 -0.296875l13.515625 0l0 1.53125l-14.578125 0zm9.484375 4.421875l0 -4.421875l0.046875 -1.53125l0 -3.890625l1.6875 0l0 9.84375l-1.734375 0z" fill-rule="nonzero"/><path fill="#000000" fill-opacity="0.0" d="m651.8609 238.8084l53.007874 0l0 48.472458l-53.007874 0z" fill-rule="evenodd"/><path fill="#595959" d="m661.7984 270.8484l0 -1.21875l6.984375 -6.84375q0.953125 -0.9375 1.4375 -1.640625q0.484375 -0.71875 0.640625 -1.328125q0.171875 -0.625 0.171875 -1.1875q0 -1.46875 -1.0 -2.296875q-0.984375 -0.84373474 -2.9375 -0.84373474q-1.484375 0 -2.625 0.453125q-1.140625 0.45310974 -1.953125 1.4218597l-1.21875 -1.0625q0.984375 -1.1562347 2.515625 -1.7656097q1.53125 -0.625 3.4375 -0.625q1.703125 0 2.9375 0.546875q1.25 0.53125 1.9375 1.5624847q0.6875 1.03125 0.6875 2.421875q0 0.8125 -0.234375 1.609375q-0.21875 0.78125 -0.8125 1.671875q-0.59375 0.875 -1.71875 1.96875l-6.40625 6.296875l-0.484375 -0.671875l10.421875 0l0 1.53125l-11.78125 0z" fill-rule="nonzero"/><path fill="#000000" fill-opacity="0.0" d="m651.8609 270.8084l53.007874 0l0 48.472443l-53.007874 0z" fill-rule="evenodd"/><path fill="#595959" d="m667.1265 302.989q-1.828125 0 -3.453125 -0.578125q-1.609375 -0.59375 -2.59375 -1.578125l0.84375 -1.375q0.8125 0.84375 2.1875 1.40625q1.375 0.546875 3.015625 0.546875q2.09375 0 3.203125 -0.90625q1.109375 -0.921875 1.109375 -2.453125q0 -1.546875 -1.09375 -2.453125q-1.078125 -0.90625 -3.4375 -0.90625l-1.203125 0l0 -1.28125l5.1875 -6.5l0.234375 0.671875l-9.359375 0l0 -1.53125l10.8125 0l0 1.21875l-5.1875 6.5l-0.84375 -0.546875l0.65625 0q3.015625 0 4.515625 1.34375q1.5 1.34375 1.5 3.453125q0 1.421875 -0.671875 2.546875q-0.671875 1.125 -2.03125 1.78125q-1.359375 0.640625 -3.390625 0.640625z" fill-rule="nonzero"/><path fill="#000000" fill-opacity="0.0" d="m651.8609 206.8084l53.007874 0l0 48.472443l-53.007874 0z" fill-rule="evenodd"/><path fill="#595959" d="m665.0328 238.8484l0 -16.078125l0.765625 0.8125l-4.71875 0l0 -1.53125l5.6875 0l0 16.796875l-1.734375 0z" fill-rule="nonzero"/><path fill="#000000" fill-opacity="0.0" d="m683.8609 134.8084l64.0 0l0 48.472443l-64.0 0z" fill-rule="evenodd"/><path fill="#595959" d="m700.3765 166.8484l-7.4375 -16.796875l1.90625 0l6.96875 15.8125l-1.0625 0l7.015625 -15.8125l1.796875 0l-7.4375 16.796875l-1.75 0zm18.181946 0l0 -2.78125l-0.0625 -0.453125l0 -4.65625q0 -1.609375 -0.90625 -2.46875q-0.890625 -0.875 -2.671875 -0.875q-1.21875 0 -2.328125 0.40625q-1.109375 0.40625 -1.875 1.078125l-0.765625 -1.265625q0.953125 -0.8125 2.296875 -1.25q1.34375 -0.453125 2.84375 -0.453125q2.4375 0 3.765625 1.21875q1.34375 1.203125 1.34375 3.671875l0 7.828125l-1.640625 0zm-4.34375 0.125q-1.40625 0 -2.453125 -0.46875q-1.046875 -0.46875 -1.609375 -1.296875q-0.546875 -0.828125 -0.546875 -1.90625q0 -0.984375 0.46875 -1.78125q0.46875 -0.8125 1.53125 -1.296875q1.078125 -0.5 2.875 -0.5l4.34375 0l0 1.265625l-4.296875 0q-1.8125 0 -2.53125 0.65625q-0.703125 0.640625 -0.703125 1.609375q0 1.078125 0.84375 1.734375q0.84375 0.640625 2.34375 0.640625q1.4375 0 2.484375 -0.65625q1.046875 -0.671875 1.53125 -1.921875l0.375 1.1875q-0.46875 1.234375 -1.65625 1.984375q-1.1875 0.75 -3.0 0.75zm10.613098 -0.125l0 -17.8125l1.703125 0l0 17.8125l-1.703125 0z" fill-rule="nonzero"/><path fill="#000000" fill-opacity="0.0" d="m635.8609 134.8084l64.0 0l0 48.472443l-64.0 0z" fill-rule="evenodd"/><path fill="#595959" d="m647.5953 166.8484l0 -16.796875l1.78125 0l0 16.796875l-1.78125 0zm11.904236 0.125q-1.796875 0 -3.234375 -0.8125q-1.421875 -0.828125 -2.234375 -2.28125q-0.8125 -1.453125 -0.8125 -3.34375q0 -1.921875 0.8125 -3.359375q0.8125 -1.4375 2.234375 -2.234375q1.4375 -0.8125 3.234375 -0.8125q1.65625 0 2.953125 0.75q1.3125 0.734375 2.09375 2.171875q0.78125 1.421875 0.78125 3.484375q0 2.046875 -0.765625 3.484375q-0.765625 1.4375 -2.078125 2.203125q-1.296875 0.75 -2.984375 0.75zm0.125 -1.515625q1.34375 0 2.40625 -0.609375q1.0625 -0.609375 1.671875 -1.71875q0.625 -1.125 0.625 -2.59375q0 -1.484375 -0.625 -2.59375q-0.609375 -1.109375 -1.671875 -1.71875q-1.0625 -0.609375 -2.40625 -0.609375q-1.328125 0 -2.390625 0.609375q-1.046875 0.609375 -1.671875 1.71875q-0.625 1.109375 -0.625 2.59375q0 1.46875 0.625 2.59375q0.625 1.109375 1.671875 1.71875q1.0625 0.609375 2.390625 0.609375zm4.75 1.390625l0 -3.796875l0.171875 -2.546875l-0.25 -2.53125l0 -8.9375l1.703125 0l0 17.8125l-1.625 0zm4.4594727 0l5.328125 -6.90625l-0.015625 0.828125l-5.0625 -6.515625l1.90625 0l4.15625 5.390625l-0.71875 -0.015625l4.15625 -5.375l1.875 0l-5.125 6.59375l0.03125 -0.90625l5.375 6.90625l-1.9375 0l-4.390625 -5.765625l0.671875 0.109375l-4.328125 5.65625l-1.921875 0z" fill-rule="nonzero"/><path fill="#000000" fill-opacity="0.0" d="m555.8609 134.8084l64.0 0l0 48.472443l-64.0 0z" fill-rule="evenodd"/><path fill="#595959" d="m567.5953 166.8484l0 -16.796875l7.25 0q2.8125 0 4.359375 1.125q1.546875 1.125 1.546875 3.1875q0 1.375 -0.640625 2.3125q-0.640625 0.9375 -1.734375 1.421875q-1.078125 0.46875 -2.375 0.46875l0.40625 -0.578125q1.609375 0 2.765625 0.5q1.171875 0.484375 1.8125 1.46875q0.65625 0.96875 0.65625 2.40625q0 2.125 -1.578125 3.3125q-1.578125 1.171875 -4.734375 1.171875l-7.734375 0zm1.78125 -1.46875l5.921875 0q2.203125 0 3.375 -0.75q1.1875 -0.75 1.1875 -2.40625q0 -1.640625 -1.1875 -2.390625q-1.171875 -0.765625 -3.375 -0.765625l-6.125 0l0 -1.453125l5.546875 0q2.015625 0 3.125 -0.765625q1.125 -0.78125 1.125 -2.28125q0 -1.546875 -1.125 -2.296875q-1.109375 -0.765625 -3.125 -0.765625l-5.34375 0l0 13.875zm15.955322 1.46875l0 -12.59375l1.703125 0l0 12.59375l-1.703125 0zm0.875 -15.390625q-0.53125 0 -0.890625 -0.359375q-0.359375 -0.359375 -0.359375 -0.859375q0 -0.5 0.359375 -0.84375q0.359375 -0.359375 0.890625 -0.359375q0.53125 0 0.890625 0.34375q0.359375 0.328125 0.359375 0.84375q0 0.515625 -0.359375 0.875q-0.34375 0.359375 -0.890625 0.359375zm9.565369 15.515625q-1.78125 0 -2.75 -0.953125q-0.953125 -0.96875 -0.953125 -2.71875l0 -11.84375l1.71875 0l0 11.75q0 1.09375 0.5625 1.703125q0.5625 0.59375 1.609375 0.59375q1.140625 0 1.875 -0.640625l0.609375 1.21875q-0.515625 0.453125 -1.21875 0.671875q-0.703125 0.21875 -1.453125 0.21875zm-5.953125 -11.3125l0 -1.40625l7.796875 0l0 1.40625l-7.796875 0z" fill-rule="nonzero"/><path fill="#000000" fill-opacity="0.0" d="m603.8609 206.8084l53.007874 0l0 48.472443l-53.007874 0z" fill-rule="evenodd"/><path fill="#595959" d="m617.0328 238.8484l0 -16.078125l0.765625 0.8125l-4.71875 0l0 -1.53125l5.6875 0l0 16.796875l-1.734375 0z" fill-rule="nonzero"/><path fill="#000000" fill-opacity="0.0" d="m539.8609 302.8084l53.007874 0l0 48.472443l-53.007874 0z" fill-rule="evenodd"/><path fill="#595959" d="m553.0328 334.8484l0 -16.078125l0.765625 0.8125l-4.71875 0l0 -1.53125l5.6875 0l0 16.796875l-1.734375 0z" fill-rule="nonzero"/><path fill="#000000" fill-opacity="0.0" d="m571.8609 238.8084l53.007874 0l0 48.472458l-53.007874 0z" fill-rule="evenodd"/><path fill="#595959" d="m585.0328 270.8484l0 -16.07811l0.765625 0.8125l-4.71875 0l0 -1.53125l5.6875 0l0 16.79686l-1.734375 0z" fill-rule="nonzero"/><path fill="#000000" fill-opacity="0.0" d="m571.8609 270.8084l53.007874 0l0 48.472443l-53.007874 0z" fill-rule="evenodd"/><path fill="#595959" d="m585.0328 302.8484l0 -16.078125l0.765625 0.8125l-4.71875 0l0 -1.53125l5.6875 0l0 16.796875l-1.734375 0z" fill-rule="nonzero"/><path fill="#000000" fill-opacity="0.0" d="m603.8609 270.8084l53.007874 0l0 48.472443l-53.007874 0z" fill-rule="evenodd"/><path fill="#595959" d="m617.0328 302.8484l0 -16.078125l0.765625 0.8125l-4.71875 0l0 -1.53125l5.6875 0l0 16.796875l-1.734375 0z" fill-rule="nonzero"/><path fill="#000000" fill-opacity="0.0" d="m601.86615 174.8084l34.92914 0l0 48.472443l-34.92914 0z" fill-rule="evenodd"/><path fill="#595959" d="m618.80365 206.98903q-1.9375 0 -3.453125 -1.015625q-1.515625 -1.015625 -2.375 -2.921875q-0.859375 -1.921875 -0.859375 -4.609375q0 -2.6875 0.859375 -4.59375q0.859375 -1.90625 2.375 -2.921875q1.515625 -1.015625 3.453125 -1.015625q1.953125 0 3.453125 1.015625q1.515625 1.015625 2.390625 2.921875q0.875 1.90625 0.875 4.59375q0 2.6875 -0.875 4.609375q-0.875 1.90625 -2.390625 2.921875q-1.5 1.015625 -3.453125 1.015625zm0 -1.578125q1.5 0 2.59375 -0.796875q1.109375 -0.8125 1.734375 -2.359375q0.625 -1.546875 0.625 -3.8125q0 -2.25 -0.625 -3.796875q-0.625 -1.546875 -1.734375 -2.34375q-1.09375 -0.8125 -2.59375 -0.8125q-1.4375 0 -2.5625 0.8125q-1.125 0.796875 -1.75 2.34375q-0.625 1.546875 -0.625 3.796875q0 2.265625 0.625 3.8125q0.625 1.546875 1.75 2.359375q1.125 0.796875 2.5625 0.796875z" fill-rule="nonzero"/><path fill="#000000" fill-opacity="0.0" d="m601.86615 238.8084l34.92914 0l0 48.472458l-34.92914 0z" fill-rule="evenodd"/><path fill="#595959" d="m618.80365 270.989q-1.9375 0 -3.453125 -1.015625q-1.515625 -1.015625 -2.375 -2.921875q-0.859375 -1.921875 -0.859375 -4.609375q0 -2.6875 0.859375 -4.59375q0.859375 -1.9062347 2.375 -2.9218597q1.515625 -1.015625 3.453125 -1.015625q1.953125 0 3.453125 1.015625q1.515625 1.015625 2.390625 2.9218597q0.875 1.90625 0.875 4.59375q0 2.6875 -0.875 4.609375q-0.875 1.90625 -2.390625 2.921875q-1.5 1.015625 -3.453125 1.015625zm0 -1.578125q1.5 0 2.59375 -0.796875q1.109375 -0.8125 1.734375 -2.359375q0.625 -1.546875 0.625 -3.8125q0 -2.25 -0.625 -3.796875q-0.625 -1.546875 -1.734375 -2.34375q-1.09375 -0.81248474 -2.59375 -0.81248474q-1.4375 0 -2.5625 0.81248474q-1.125 0.796875 -1.75 2.34375q-0.625 1.546875 -0.625 3.796875q0 2.265625 0.625 3.8125q0.625 1.546875 1.75 2.359375q1.125 0.796875 2.5625 0.796875z" fill-rule="nonzero"/><path fill="#000000" fill-opacity="0.0" d="m601.86615 302.8084l34.92914 0l0 48.472443l-34.92914 0z" fill-rule="evenodd"/><path fill="#595959" d="m618.80365 334.989q-1.9375 0 -3.453125 -1.015625q-1.515625 -1.015625 -2.375 -2.921875q-0.859375 -1.921875 -0.859375 -4.609375q0 -2.6875 0.859375 -4.59375q0.859375 -1.90625 2.375 -2.921875q1.515625 -1.015625 3.453125 -1.015625q1.953125 0 3.453125 1.015625q1.515625 1.015625 2.390625 2.921875q0.875 1.90625 0.875 4.59375q0 2.6875 -0.875 4.609375q-0.875 1.90625 -2.390625 2.921875q-1.5 1.015625 -3.453125 1.015625zm0 -1.578125q1.5 0 2.59375 -0.796875q1.109375 -0.8125 1.734375 -2.359375q0.625 -1.546875 0.625 -3.8125q0 -2.25 -0.625 -3.796875q-0.625 -1.546875 -1.734375 -2.34375q-1.09375 -0.8125 -2.59375 -0.8125q-1.4375 0 -2.5625 0.8125q-1.125 0.796875 -1.75 2.34375q-0.625 1.546875 -0.625 3.796875q0 2.265625 0.625 3.8125q0.625 1.546875 1.75 2.359375q1.125 0.796875 2.5625 0.796875z" fill-rule="nonzero"/><path fill="#000000" fill-opacity="0.0" d="m569.86615 302.8084l34.92914 0l0 48.472443l-34.92914 0z" fill-rule="evenodd"/><path fill="#595959" d="m586.80365 334.989q-1.9375 0 -3.453125 -1.015625q-1.515625 -1.015625 -2.375 -2.921875q-0.859375 -1.921875 -0.859375 -4.609375q0 -2.6875 0.859375 -4.59375q0.859375 -1.90625 2.375 -2.921875q1.515625 -1.015625 3.453125 -1.015625q1.953125 0 3.453125 1.015625q1.515625 1.015625 2.390625 2.921875q0.875 1.90625 0.875 4.59375q0 2.6875 -0.875 4.609375q-0.875 1.90625 -2.390625 2.921875q-1.5 1.015625 -3.453125 1.015625zm0 -1.578125q1.5 0 2.59375 -0.796875q1.109375 -0.8125 1.734375 -2.359375q0.625 -1.546875 0.625 -3.8125q0 -2.25 -0.625 -3.796875q-0.625 -1.546875 -1.734375 -2.34375q-1.09375 -0.8125 -2.59375 -0.8125q-1.4375 0 -2.5625 0.8125q-1.125 0.796875 -1.75 2.34375q-0.625 1.546875 -0.625 3.796875q0 2.265625 0.625 3.8125q0.625 1.546875 1.75 2.359375q1.125 0.796875 2.5625 0.796875z" fill-rule="nonzero"/><path fill="#ffffff" d="m303.50394 345.88452l23.653534 0l0 25.29132l-23.653534 0z" fill-rule="evenodd"/><path stroke="#595959" stroke-width="1.0" stroke-linejoin="round" stroke-linecap="butt" d="m303.50394 345.88452l23.653534 0l0 25.29132l-23.653534 0z" fill-rule="evenodd"/><path fill="#ffffff" d="m335.50394 345.88452l23.653534 0l0 25.29132l-23.653534 0z" fill-rule="evenodd"/><path stroke="#595959" stroke-width="1.0" stroke-linejoin="round" stroke-linecap="butt" d="m335.50394 345.88452l23.653534 0l0 25.29132l-23.653534 0z" fill-rule="evenodd"/><path fill="#ffffff" d="m367.50394 345.88452l23.653534 0l0 25.29132l-23.653534 0z" fill-rule="evenodd"/><path stroke="#595959" stroke-width="1.0" stroke-linejoin="round" stroke-linecap="butt" d="m367.50394 345.88452l23.653534 0l0 25.29132l-23.653534 0z" fill-rule="evenodd"/><path fill="#000000" fill-opacity="0.0" d="m187.86089 334.8084l53.007874 0l0 48.472443l-53.007874 0z" fill-rule="evenodd"/><path fill="#595959" d="m201.06401 366.8484l7.25 -16.03125l0.515625 0.765625l-10.390625 0l0.890625 -0.84375l0 3.984375l-1.703125 0l0 -4.671875l12.34375 0l0 1.21875l-7.03125 15.578125l-1.875 0zm14.135956 0l7.25 -16.03125l0.515625 0.765625l-10.390625 0l0.890625 -0.84375l0 3.984375l-1.703125 0l0 -4.671875l12.34375 0l0 1.21875l-7.03125 15.578125l-1.875 0z" fill-rule="nonzero"/><path fill="#000000" fill-opacity="0.0" d="m243.86089 334.8084l53.00789 0l0 48.472443l-53.00789 0z" fill-rule="evenodd"/><path fill="#595959" d="m259.40778 366.989q-1.796875 0 -3.4375153 -0.578125q-1.625 -0.59375 -2.578125 -1.578125l0.84375 -1.375q0.78125 0.84375 2.1562653 1.40625q1.390625 0.546875 3.0 0.546875q2.125 0 3.234375 -0.953125q1.125 -0.953125 1.125 -2.484375q0 -1.078125 -0.515625 -1.859375q-0.515625 -0.78125 -1.734375 -1.203125q-1.21875 -0.4375 -3.359375 -0.4375l-3.5781403 0l0.859375 -8.421875l9.20314 0l0 1.53125l-8.5 0l0.890625 -0.84375l-0.75 7.0625l-0.89064026 -0.859375l3.1406403 0q2.546875 0 4.078125 0.625q1.546875 0.625 2.21875 1.734375q0.6875 1.109375 0.6875 2.609375q0 1.40625 -0.671875 2.578125q-0.671875 1.15625 -2.015625 1.828125q-1.34375 0.671875 -3.40625 0.671875z" fill-rule="nonzero"/><path fill="#000000" fill-opacity="0.0" d="m299.8609 334.8084l53.007874 0l0 48.472443l-53.007874 0z" fill-rule="evenodd"/><path fill="#595959" d="m313.03278 366.8484l0 -16.078125l0.765625 0.8125l-4.71875 0l0 -1.53125l5.6875 0l0 16.796875l-1.734375 0z" fill-rule="nonzero"/><path fill="#000000" fill-opacity="0.0" d="m363.8609 334.8084l53.007874 0l0 48.472443l-53.007874 0z" fill-rule="evenodd"/><path fill="#595959" d="m377.03278 366.8484l0 -16.078125l0.765625 0.8125l-4.71875 0l0 -1.53125l5.6875 0l0 16.796875l-1.734375 0z" fill-rule="nonzero"/><path fill="#ffffff" d="m543.50397 345.88452l23.653503 0l0 25.29132l-23.653503 0z" fill-rule="evenodd"/><path stroke="#595959" stroke-width="1.0" stroke-linejoin="round" stroke-linecap="butt" d="m543.50397 345.88452l23.653503 0l0 25.29132l-23.653503 0z" fill-rule="evenodd"/><path fill="#ffffff" d="m575.50397 345.88452l23.653503 0l0 25.29132l-23.653503 0z" fill-rule="evenodd"/><path stroke="#595959" stroke-width="1.0" stroke-linejoin="round" stroke-linecap="butt" d="m575.50397 345.88452l23.653503 0l0 25.29132l-23.653503 0z" fill-rule="evenodd"/><path fill="#ffffff" d="m607.50397 345.88452l23.653503 0l0 25.29132l-23.653503 0z" fill-rule="evenodd"/><path stroke="#595959" stroke-width="1.0" stroke-linejoin="round" stroke-linecap="butt" d="m607.50397 345.88452l23.653503 0l0 25.29132l-23.653503 0z" fill-rule="evenodd"/><path fill="#000000" fill-opacity="0.0" d="m699.8609 334.8084l53.007874 0l0 48.472443l-53.007874 0z" fill-rule="evenodd"/><path fill="#595959" d="m713.064 366.8484l7.25 -16.03125l0.515625 0.765625l-10.390625 0l0.890625 -0.84375l0 3.984375l-1.703125 0l0 -4.671875l12.34375 0l0 1.21875l-7.03125 15.578125l-1.875 0zm14.135925 0l7.25 -16.03125l0.515625 0.765625l-10.390625 0l0.890625 -0.84375l0 3.984375l-1.703125 0l0 -4.671875l12.34375 0l0 1.21875l-7.03125 15.578125l-1.875 0z" fill-rule="nonzero"/><path fill="#000000" fill-opacity="0.0" d="m651.8609 334.8084l53.007874 0l0 48.472443l-53.007874 0z" fill-rule="evenodd"/><path fill="#595959" d="m667.4078 366.989q-1.796875 0 -3.4375 -0.578125q-1.625 -0.59375 -2.578125 -1.578125l0.84375 -1.375q0.78125 0.84375 2.15625 1.40625q1.390625 0.546875 3.0 0.546875q2.125 0 3.234375 -0.953125q1.125 -0.953125 1.125 -2.484375q0 -1.078125 -0.515625 -1.859375q-0.515625 -0.78125 -1.734375 -1.203125q-1.21875 -0.4375 -3.359375 -0.4375l-3.578125 0l0.859375 -8.421875l9.203125 0l0 1.53125l-8.5 0l0.890625 -0.84375l-0.75 7.0625l-0.890625 -0.859375l3.140625 0q2.546875 0 4.078125 0.625q1.546875 0.625 2.21875 1.734375q0.6875 1.109375 0.6875 2.609375q0 1.40625 -0.671875 2.578125q-0.671875 1.15625 -2.015625 1.828125q-1.34375 0.671875 -3.40625 0.671875z" fill-rule="nonzero"/><path fill="#000000" fill-opacity="0.0" d="m539.8609 334.8084l53.007874 0l0 48.472443l-53.007874 0z" fill-rule="evenodd"/><path fill="#595959" d="m553.0328 366.8484l0 -16.078125l0.765625 0.8125l-4.71875 0l0 -1.53125l5.6875 0l0 16.796875l-1.734375 0z" fill-rule="nonzero"/><path fill="#000000" fill-opacity="0.0" d="m603.8609 334.8084l53.007874 0l0 48.472443l-53.007874 0z" fill-rule="evenodd"/><path fill="#595959" d="m617.0328 366.8484l0 -16.078125l0.765625 0.8125l-4.71875 0l0 -1.53125l5.6875 0l0 16.796875l-1.734375 0z" fill-rule="nonzero"/><path fill="#000000" fill-opacity="0.0" d="m569.86615 334.8084l34.92914 0l0 48.472443l-34.92914 0z" fill-rule="evenodd"/><path fill="#595959" d="m586.80365 366.989q-1.9375 0 -3.453125 -1.015625q-1.515625 -1.015625 -2.375 -2.921875q-0.859375 -1.921875 -0.859375 -4.609375q0 -2.6875 0.859375 -4.59375q0.859375 -1.90625 2.375 -2.921875q1.515625 -1.015625 3.453125 -1.015625q1.953125 0 3.453125 1.015625q1.515625 1.015625 2.390625 2.921875q0.875 1.90625 0.875 4.59375q0 2.6875 -0.875 4.609375q-0.875 1.90625 -2.390625 2.921875q-1.5 1.015625 -3.453125 1.015625zm0 -1.578125q1.5 0 2.59375 -0.796875q1.109375 -0.8125 1.734375 -2.359375q0.625 -1.546875 0.625 -3.8125q0 -2.25 -0.625 -3.796875q-0.625 -1.546875 -1.734375 -2.34375q-1.09375 -0.8125 -2.59375 -0.8125q-1.4375 0 -2.5625 0.8125q-1.125 0.796875 -1.75 2.34375q-0.625 1.546875 -0.625 3.796875q0 2.265625 0.625 3.8125q0.625 1.546875 1.75 2.359375q1.125 0.796875 2.5625 0.796875z" fill-rule="nonzero"/><path fill="#000000" fill-opacity="0.0" d="m329.86615 334.8084l34.92914 0l0 48.472443l-34.92914 0z" fill-rule="evenodd"/><path fill="#595959" d="m346.80365 366.989q-1.9375 0 -3.453125 -1.015625q-1.515625 -1.015625 -2.375 -2.921875q-0.859375 -1.921875 -0.859375 -4.609375q0 -2.6875 0.859375 -4.59375q0.859375 -1.90625 2.375 -2.921875q1.515625 -1.015625 3.453125 -1.015625q1.953125 0 3.453125 1.015625q1.515625 1.015625 2.390625 2.921875q0.875 1.90625 0.875 4.59375q0 2.6875 -0.875 4.609375q-0.875 1.90625 -2.390625 2.921875q-1.5 1.015625 -3.453125 1.015625zm0 -1.578125q1.5 0 2.59375 -0.796875q1.109375 -0.8125 1.734375 -2.359375q0.625 -1.546875 0.625 -3.8125q0 -2.25 -0.625 -3.796875q-0.625 -1.546875 -1.734375 -2.34375q-1.09375 -0.8125 -2.59375 -0.8125q-1.4375 0 -2.5625 0.8125q-1.125 0.796875 -1.75 2.34375q-0.625 1.546875 -0.625 3.796875q0 2.265625 0.625 3.8125q0.625 1.546875 1.75 2.359375q1.125 0.796875 2.5625 0.796875z" fill-rule="nonzero"/><path fill="#000000" fill-opacity="0.0" d="m379.8609 159.04462l176.0 0" fill-rule="evenodd"/><path stroke="#595959" stroke-width="1.0" stroke-linejoin="round" stroke-linecap="butt" d="m379.8609 159.04462l170.0 0" fill-rule="evenodd"/><path fill="#595959" stroke="#595959" stroke-width="1.0" stroke-linecap="butt" d="m549.8609 160.69635l4.538086 -1.6517334l-4.538086 -1.6517334z" fill-rule="evenodd"/><path fill="#000000" fill-opacity="0.0" d="m387.8609 118.808395l176.0 0l0 48.472443l-176.0 0z" fill-rule="evenodd"/><path fill="#595959" d="m399.59528 150.8484l0 -16.796875l6.296875 0q2.125 0 3.65625 0.6875q1.546875 0.671875 2.375 1.96875q0.828125 1.28125 0.828125 3.09375q0 1.78125 -0.828125 3.0625q-0.828125 1.28125 -2.375 1.96875q-1.53125 0.6875 -3.65625 0.6875l-5.3125 0l0.796875 -0.8125l0 6.140625l-1.78125 0zm11.46875 0l-4.3125 -6.09375l1.921875 0l4.34375 6.09375l-1.953125 0zm-9.6875 -6.0l-0.796875 -0.84375l5.25 0q2.53125 0 3.828125 -1.09375q1.3125 -1.109375 1.3125 -3.109375q0 -2.015625 -1.3125 -3.109375q-1.296875 -1.109375 -3.828125 -1.109375l-5.25 0l0.796875 -0.84375l0 10.109375zm22.981934 6.0l0 -2.78125l-0.0625 -0.453125l0 -4.65625q0 -1.609375 -0.90625 -2.46875q-0.890625 -0.875 -2.671875 -0.875q-1.21875 0 -2.328125 0.40625q-1.109375 0.40625 -1.875 1.078125l-0.765625 -1.265625q0.953125 -0.8125 2.296875 -1.25q1.34375 -0.453125 2.84375 -0.453125q2.4375 0 3.765625 1.21875q1.34375 1.203125 1.34375 3.671875l0 7.828125l-1.640625 0zm-4.34375 0.125q-1.40625 0 -2.453125 -0.46875q-1.046875 -0.46875 -1.609375 -1.296875q-0.546875 -0.828125 -0.546875 -1.90625q0 -0.984375 0.46875 -1.78125q0.46875 -0.8125 1.53125 -1.296875q1.078125 -0.5 2.875 -0.5l4.34375 0l0 1.265625l-4.296875 0q-1.8125 0 -2.53125 0.65625q-0.703125 0.640625 -0.703125 1.609375q0 1.078125 0.84375 1.734375q0.84375 0.640625 2.34375 0.640625q1.4375 0 2.484375 -0.65625q1.046875 -0.671875 1.53125 -1.921875l0.375 1.1875q-0.46875 1.234375 -1.65625 1.984375q-1.1875 0.75 -3.0 0.75zm15.628723 0q-1.796875 0 -3.234375 -0.8125q-1.421875 -0.828125 -2.234375 -2.28125q-0.8125 -1.453125 -0.8125 -3.34375q0 -1.921875 0.8125 -3.359375q0.8125 -1.4375 2.234375 -2.234375q1.4375 -0.8125 3.234375 -0.8125q1.65625 0 2.953125 0.75q1.3125 0.734375 2.09375 2.171875q0.78125 1.421875 0.78125 3.484375q0 2.046875 -0.765625 3.484375q-0.765625 1.4375 -2.078125 2.203125q-1.296875 0.75 -2.984375 0.75zm0.125 -1.515625q1.34375 0 2.40625 -0.609375q1.0625 -0.609375 1.671875 -1.71875q0.625 -1.125 0.625 -2.59375q0 -1.484375 -0.625 -2.59375q-0.609375 -1.109375 -1.671875 -1.71875q-1.0625 -0.609375 -2.40625 -0.609375q-1.328125 0 -2.390625 0.609375q-1.046875 0.609375 -1.671875 1.71875q-0.625 1.109375 -0.625 2.59375q0 1.46875 0.625 2.59375q0.625 1.109375 1.671875 1.71875q1.0625 0.609375 2.390625 0.609375zm4.75 1.390625l0 -3.796875l0.171875 -2.546875l-0.25 -2.53125l0 -8.9375l1.703125 0l0 17.8125l-1.625 0zm6.381317 0l0 -12.59375l1.703125 0l0 12.59375l-1.703125 0zm0.875 -15.390625q-0.53125 0 -0.890625 -0.359375q-0.359375 -0.359375 -0.359375 -0.859375q0 -0.5 0.359375 -0.84375q0.359375 -0.359375 0.890625 -0.359375q0.53125 0 0.890625 0.34375q0.359375 0.328125 0.359375 0.84375q0 0.515625 -0.359375 0.875q-0.34375 0.359375 -0.890625 0.359375zm3.6591187 15.390625l5.328125 -6.90625l-0.015625 0.828125l-5.0625 -6.515625l1.90625 0l4.15625 5.390625l-0.71875 -0.015625l4.15625 -5.375l1.875 0l-5.125 6.59375l0.03125 -0.90625l5.375 6.90625l-1.9375 0l-4.390625 -5.765625l0.671875 0.109375l-4.328125 5.65625l-1.921875 0zm26.025818 0.140625q-1.875 0 -3.59375 -0.609375q-1.71875 -0.609375 -2.65625 -1.578125l0.703125 -1.359375q0.890625 0.859375 2.390625 1.453125q1.5 0.578125 3.15625 0.578125q1.578125 0 2.5625 -0.390625q1.0 -0.390625 1.46875 -1.0625q0.46875 -0.671875 0.46875 -1.484375q0 -0.984375 -0.5625 -1.578125q-0.5625 -0.609375 -1.484375 -0.953125q-0.90625 -0.359375 -2.015625 -0.625q-1.09375 -0.265625 -2.203125 -0.5625q-1.09375 -0.296875 -2.03125 -0.796875q-0.921875 -0.515625 -1.484375 -1.328125q-0.5625 -0.828125 -0.5625 -2.1875q0 -1.234375 0.65625 -2.28125q0.671875 -1.046875 2.03125 -1.671875q1.375 -0.640625 3.515625 -0.640625q1.40625 0 2.796875 0.390625q1.390625 0.390625 2.40625 1.09375l-0.59375 1.40625q-1.09375 -0.71875 -2.3125 -1.046875q-1.203125 -0.34375 -2.328125 -0.34375q-1.515625 0 -2.5 0.421875q-0.984375 0.40625 -1.453125 1.09375q-0.46875 0.671875 -0.46875 1.53125q0 0.984375 0.5625 1.59375q0.578125 0.59375 1.5 0.9375q0.921875 0.328125 2.015625 0.59375q1.109375 0.265625 2.203125 0.578125q1.09375 0.3125 2.015625 0.8125q0.921875 0.484375 1.484375 1.296875q0.5625 0.8125 0.5625 2.140625q0 1.21875 -0.671875 2.265625q-0.671875 1.046875 -2.046875 1.6875q-1.375 0.625 -3.53125 0.625zm14.900574 -0.015625q-1.828125 0 -3.28125 -0.828125q-1.453125 -0.828125 -2.296875 -2.28125q-0.828125 -1.453125 -0.828125 -3.328125q0 -1.890625 0.828125 -3.328125q0.84375 -1.453125 2.28125 -2.265625q1.4375 -0.8125 3.296875 -0.8125q1.875 0 3.3125 0.8125q1.453125 0.8125 2.28125 2.265625q0.828125 1.4375 0.828125 3.328125q0 1.875 -0.828125 3.328125q-0.828125 1.453125 -2.296875 2.28125q-1.453125 0.828125 -3.296875 0.828125zm0 -1.515625q1.359375 0 2.40625 -0.609375q1.0625 -0.609375 1.671875 -1.71875q0.625 -1.125 0.625 -2.59375q0 -1.484375 -0.625 -2.59375q-0.609375 -1.109375 -1.671875 -1.71875q-1.046875 -0.609375 -2.390625 -0.609375q-1.34375 0 -2.40625 0.609375q-1.046875 0.609375 -1.671875 1.71875q-0.625 1.109375 -0.625 2.59375q0 1.46875 0.625 2.59375q0.625 1.109375 1.671875 1.71875q1.0625 0.609375 2.390625 0.609375zm9.907349 1.390625l0 -12.59375l1.640625 0l0 3.421875l-0.171875 -0.59375q0.53125 -1.4375 1.765625 -2.1875q1.25 -0.765625 3.109375 -0.765625l0 1.65625q-0.109375 0 -0.203125 -0.015625q-0.09375 -0.015625 -0.1875 -0.015625q-1.984375 0 -3.125 1.21875q-1.125 1.21875 -1.125 3.4375l0 6.4375l-1.703125 0zm13.968353 0.125q-1.78125 0 -2.75 -0.953125q-0.953125 -0.96875 -0.953125 -2.71875l0 -11.84375l1.71875 0l0 11.75q0 1.09375 0.5625 1.703125q0.5625 0.59375 1.609375 0.59375q1.140625 0 1.875 -0.640625l0.609375 1.21875q-0.515625 0.453125 -1.21875 0.671875q-0.703125 0.21875 -1.453125 0.21875zm-5.953125 -11.3125l0 -1.40625l7.796875 0l0 1.40625l-7.796875 0z" fill-rule="nonzero"/><path fill="#000000" fill-opacity="0.0" d="m297.86615 174.8084l34.92914 0l0 48.472443l-34.92914 0z" fill-rule="evenodd"/><path fill="#b7b7b7" d="m314.80365 206.98903q-1.9375 0 -3.453125 -1.015625q-1.515625 -1.015625 -2.375 -2.921875q-0.859375 -1.921875 -0.859375 -4.609375q0 -2.6875 0.859375 -4.59375q0.859375 -1.90625 2.375 -2.921875q1.515625 -1.015625 3.453125 -1.015625q1.953125 0 3.453125 1.015625q1.515625 1.015625 2.390625 2.921875q0.875 1.90625 0.875 4.59375q0 2.6875 -0.875 4.609375q-0.875 1.90625 -2.390625 2.921875q-1.5 1.015625 -3.453125 1.015625zm0 -1.578125q1.5 0 2.59375 -0.796875q1.109375 -0.8125 1.734375 -2.359375q0.625 -1.546875 0.625 -3.8125q0 -2.25 -0.625 -3.796875q-0.625 -1.546875 -1.734375 -2.34375q-1.09375 -0.8125 -2.59375 -0.8125q-1.4375 0 -2.5625 0.8125q-1.125 0.796875 -1.75 2.34375q-0.625 1.546875 -0.625 3.796875q0 2.265625 0.625 3.8125q0.625 1.546875 1.75 2.359375q1.125 0.796875 2.5625 0.796875z" fill-rule="nonzero"/><path fill="#000000" fill-opacity="0.0" d="m329.86615 174.8084l34.92914 0l0 48.472443l-34.92914 0z" fill-rule="evenodd"/><path fill="#b7b7b7" d="m346.80365 206.98903q-1.9375 0 -3.453125 -1.015625q-1.515625 -1.015625 -2.375 -2.921875q-0.859375 -1.921875 -0.859375 -4.609375q0 -2.6875 0.859375 -4.59375q0.859375 -1.90625 2.375 -2.921875q1.515625 -1.015625 3.453125 -1.015625q1.953125 0 3.453125 1.015625q1.515625 1.015625 2.390625 2.921875q0.875 1.90625 0.875 4.59375q0 2.6875 -0.875 4.609375q-0.875 1.90625 -2.390625 2.921875q-1.5 1.015625 -3.453125 1.015625zm0 -1.578125q1.5 0 2.59375 -0.796875q1.109375 -0.8125 1.734375 -2.359375q0.625 -1.546875 0.625 -3.8125q0 -2.25 -0.625 -3.796875q-0.625 -1.546875 -1.734375 -2.34375q-1.09375 -0.8125 -2.59375 -0.8125q-1.4375 0 -2.5625 0.8125q-1.125 0.796875 -1.75 2.34375q-0.625 1.546875 -0.625 3.796875q0 2.265625 0.625 3.8125q0.625 1.546875 1.75 2.359375q1.125 0.796875 2.5625 0.796875z" fill-rule="nonzero"/><path fill="#000000" fill-opacity="0.0" d="m297.86615 238.8084l34.92914 0l0 48.472458l-34.92914 0z" fill-rule="evenodd"/><path fill="#b7b7b7" d="m314.80365 270.989q-1.9375 0 -3.453125 -1.015625q-1.515625 -1.015625 -2.375 -2.921875q-0.859375 -1.921875 -0.859375 -4.609375q0 -2.6875 0.859375 -4.59375q0.859375 -1.9062347 2.375 -2.9218597q1.515625 -1.015625 3.453125 -1.015625q1.953125 0 3.453125 1.015625q1.515625 1.015625 2.390625 2.9218597q0.875 1.90625 0.875 4.59375q0 2.6875 -0.875 4.609375q-0.875 1.90625 -2.390625 2.921875q-1.5 1.015625 -3.453125 1.015625zm0 -1.578125q1.5 0 2.59375 -0.796875q1.109375 -0.8125 1.734375 -2.359375q0.625 -1.546875 0.625 -3.8125q0 -2.25 -0.625 -3.796875q-0.625 -1.546875 -1.734375 -2.34375q-1.09375 -0.81248474 -2.59375 -0.81248474q-1.4375 0 -2.5625 0.81248474q-1.125 0.796875 -1.75 2.34375q-0.625 1.546875 -0.625 3.796875q0 2.265625 0.625 3.8125q0.625 1.546875 1.75 2.359375q1.125 0.796875 2.5625 0.796875z" fill-rule="nonzero"/><path fill="#000000" fill-opacity="0.0" d="m297.86615 270.8084l34.92914 0l0 48.472443l-34.92914 0z" fill-rule="evenodd"/><path fill="#b7b7b7" d="m314.80365 302.989q-1.9375 0 -3.453125 -1.015625q-1.515625 -1.015625 -2.375 -2.921875q-0.859375 -1.921875 -0.859375 -4.609375q0 -2.6875 0.859375 -4.59375q0.859375 -1.90625 2.375 -2.921875q1.515625 -1.015625 3.453125 -1.015625q1.953125 0 3.453125 1.015625q1.515625 1.015625 2.390625 2.921875q0.875 1.90625 0.875 4.59375q0 2.6875 -0.875 4.609375q-0.875 1.90625 -2.390625 2.921875q-1.5 1.015625 -3.453125 1.015625zm0 -1.578125q1.5 0 2.59375 -0.796875q1.109375 -0.8125 1.734375 -2.359375q0.625 -1.546875 0.625 -3.8125q0 -2.25 -0.625 -3.796875q-0.625 -1.546875 -1.734375 -2.34375q-1.09375 -0.8125 -2.59375 -0.8125q-1.4375 0 -2.5625 0.8125q-1.125 0.796875 -1.75 2.34375q-0.625 1.546875 -0.625 3.796875q0 2.265625 0.625 3.8125q0.625 1.546875 1.75 2.359375q1.125 0.796875 2.5625 0.796875z" fill-rule="nonzero"/><path fill="#000000" fill-opacity="0.0" d="m329.86615 270.8084l34.92914 0l0 48.472443l-34.92914 0z" fill-rule="evenodd"/><path fill="#b7b7b7" d="m346.80365 302.989q-1.9375 0 -3.453125 -1.015625q-1.515625 -1.015625 -2.375 -2.921875q-0.859375 -1.921875 -0.859375 -4.609375q0 -2.6875 0.859375 -4.59375q0.859375 -1.90625 2.375 -2.921875q1.515625 -1.015625 3.453125 -1.015625q1.953125 0 3.453125 1.015625q1.515625 1.015625 2.390625 2.921875q0.875 1.90625 0.875 4.59375q0 2.6875 -0.875 4.609375q-0.875 1.90625 -2.390625 2.921875q-1.5 1.015625 -3.453125 1.015625zm0 -1.578125q1.5 0 2.59375 -0.796875q1.109375 -0.8125 1.734375 -2.359375q0.625 -1.546875 0.625 -3.8125q0 -2.25 -0.625 -3.796875q-0.625 -1.546875 -1.734375 -2.34375q-1.09375 -0.8125 -2.59375 -0.8125q-1.4375 0 -2.5625 0.8125q-1.125 0.796875 -1.75 2.34375q-0.625 1.546875 -0.625 3.796875q0 2.265625 0.625 3.8125q0.625 1.546875 1.75 2.359375q1.125 0.796875 2.5625 0.796875z" fill-rule="nonzero"/><path fill="#000000" fill-opacity="0.0" d="m297.86615 302.8084l34.92914 0l0 48.472443l-34.92914 0z" fill-rule="evenodd"/><path fill="#b7b7b7" d="m314.80365 334.989q-1.9375 0 -3.453125 -1.015625q-1.515625 -1.015625 -2.375 -2.921875q-0.859375 -1.921875 -0.859375 -4.609375q0 -2.6875 0.859375 -4.59375q0.859375 -1.90625 2.375 -2.921875q1.515625 -1.015625 3.453125 -1.015625q1.953125 0 3.453125 1.015625q1.515625 1.015625 2.390625 2.921875q0.875 1.90625 0.875 4.59375q0 2.6875 -0.875 4.609375q-0.875 1.90625 -2.390625 2.921875q-1.5 1.015625 -3.453125 1.015625zm0 -1.578125q1.5 0 2.59375 -0.796875q1.109375 -0.8125 1.734375 -2.359375q0.625 -1.546875 0.625 -3.8125q0 -2.25 -0.625 -3.796875q-0.625 -1.546875 -1.734375 -2.34375q-1.09375 -0.8125 -2.59375 -0.8125q-1.4375 0 -2.5625 0.8125q-1.125 0.796875 -1.75 2.34375q-0.625 1.546875 -0.625 3.796875q0 2.265625 0.625 3.8125q0.625 1.546875 1.75 2.359375q1.125 0.796875 2.5625 0.796875z" fill-rule="nonzero"/><path fill="#000000" fill-opacity="0.0" d="m537.86615 174.8084l34.92914 0l0 48.472443l-34.92914 0z" fill-rule="evenodd"/><path fill="#b7b7b7" d="m554.80365 206.98903q-1.9375 0 -3.453125 -1.015625q-1.515625 -1.015625 -2.375 -2.921875q-0.859375 -1.921875 -0.859375 -4.609375q0 -2.6875 0.859375 -4.59375q0.859375 -1.90625 2.375 -2.921875q1.515625 -1.015625 3.453125 -1.015625q1.953125 0 3.453125 1.015625q1.515625 1.015625 2.390625 2.921875q0.875 1.90625 0.875 4.59375q0 2.6875 -0.875 4.609375q-0.875 1.90625 -2.390625 2.921875q-1.5 1.015625 -3.453125 1.015625zm0 -1.578125q1.5 0 2.59375 -0.796875q1.109375 -0.8125 1.734375 -2.359375q0.625 -1.546875 0.625 -3.8125q0 -2.25 -0.625 -3.796875q-0.625 -1.546875 -1.734375 -2.34375q-1.09375 -0.8125 -2.59375 -0.8125q-1.4375 0 -2.5625 0.8125q-1.125 0.796875 -1.75 2.34375q-0.625 1.546875 -0.625 3.796875q0 2.265625 0.625 3.8125q0.625 1.546875 1.75 2.359375q1.125 0.796875 2.5625 0.796875z" fill-rule="nonzero"/><path fill="#000000" fill-opacity="0.0" d="m569.86615 174.8084l34.92914 0l0 48.472443l-34.92914 0z" fill-rule="evenodd"/><path fill="#b7b7b7" d="m586.80365 206.98903q-1.9375 0 -3.453125 -1.015625q-1.515625 -1.015625 -2.375 -2.921875q-0.859375 -1.921875 -0.859375 -4.609375q0 -2.6875 0.859375 -4.59375q0.859375 -1.90625 2.375 -2.921875q1.515625 -1.015625 3.453125 -1.015625q1.953125 0 3.453125 1.015625q1.515625 1.015625 2.390625 2.921875q0.875 1.90625 0.875 4.59375q0 2.6875 -0.875 4.609375q-0.875 1.90625 -2.390625 2.921875q-1.5 1.015625 -3.453125 1.015625zm0 -1.578125q1.5 0 2.59375 -0.796875q1.109375 -0.8125 1.734375 -2.359375q0.625 -1.546875 0.625 -3.8125q0 -2.25 -0.625 -3.796875q-0.625 -1.546875 -1.734375 -2.34375q-1.09375 -0.8125 -2.59375 -0.8125q-1.4375 0 -2.5625 0.8125q-1.125 0.796875 -1.75 2.34375q-0.625 1.546875 -0.625 3.796875q0 2.265625 0.625 3.8125q0.625 1.546875 1.75 2.359375q1.125 0.796875 2.5625 0.796875z" fill-rule="nonzero"/><path fill="#000000" fill-opacity="0.0" d="m569.86615 206.8084l34.92914 0l0 48.472443l-34.92914 0z" fill-rule="evenodd"/><path fill="#b7b7b7" d="m586.80365 238.98903q-1.9375 0 -3.453125 -1.015625q-1.515625 -1.015625 -2.375 -2.921875q-0.859375 -1.921875 -0.859375 -4.609375q0 -2.6875 0.859375 -4.59375q0.859375 -1.90625 2.375 -2.921875q1.515625 -1.015625 3.453125 -1.015625q1.953125 0 3.453125 1.015625q1.515625 1.015625 2.390625 2.921875q0.875 1.90625 0.875 4.59375q0 2.6875 -0.875 4.609375q-0.875 1.90625 -2.390625 2.921875q-1.5 1.015625 -3.453125 1.015625zm0 -1.578125q1.5 0 2.59375 -0.796875q1.109375 -0.8125 1.734375 -2.359375q0.625 -1.546875 0.625 -3.8125q0 -2.25 -0.625 -3.796875q-0.625 -1.546875 -1.734375 -2.34375q-1.09375 -0.8125 -2.59375 -0.8125q-1.4375 0 -2.5625 0.8125q-1.125 0.796875 -1.75 2.34375q-0.625 1.546875 -0.625 3.796875q0 2.265625 0.625 3.8125q0.625 1.546875 1.75 2.359375q1.125 0.796875 2.5625 0.796875z" fill-rule="nonzero"/><path fill="#000000" fill-opacity="0.0" d="m537.86615 206.8084l34.92914 0l0 48.472443l-34.92914 0z" fill-rule="evenodd"/><path fill="#b7b7b7" d="m554.80365 238.98903q-1.9375 0 -3.453125 -1.015625q-1.515625 -1.015625 -2.375 -2.921875q-0.859375 -1.921875 -0.859375 -4.609375q0 -2.6875 0.859375 -4.59375q0.859375 -1.90625 2.375 -2.921875q1.515625 -1.015625 3.453125 -1.015625q1.953125 0 3.453125 1.015625q1.515625 1.015625 2.390625 2.921875q0.875 1.90625 0.875 4.59375q0 2.6875 -0.875 4.609375q-0.875 1.90625 -2.390625 2.921875q-1.5 1.015625 -3.453125 1.015625zm0 -1.578125q1.5 0 2.59375 -0.796875q1.109375 -0.8125 1.734375 -2.359375q0.625 -1.546875 0.625 -3.8125q0 -2.25 -0.625 -3.796875q-0.625 -1.546875 -1.734375 -2.34375q-1.09375 -0.8125 -2.59375 -0.8125q-1.4375 0 -2.5625 0.8125q-1.125 0.796875 -1.75 2.34375q-0.625 1.546875 -0.625 3.796875q0 2.265625 0.625 3.8125q0.625 1.546875 1.75 2.359375q1.125 0.796875 2.5625 0.796875z" fill-rule="nonzero"/><path fill="#000000" fill-opacity="0.0" d="m537.86615 238.8084l34.92914 0l0 48.472458l-34.92914 0z" fill-rule="evenodd"/><path fill="#b7b7b7" d="m554.80365 270.989q-1.9375 0 -3.453125 -1.015625q-1.515625 -1.015625 -2.375 -2.921875q-0.859375 -1.921875 -0.859375 -4.609375q0 -2.6875 0.859375 -4.59375q0.859375 -1.9062347 2.375 -2.9218597q1.515625 -1.015625 3.453125 -1.015625q1.953125 0 3.453125 1.015625q1.515625 1.015625 2.390625 2.9218597q0.875 1.90625 0.875 4.59375q0 2.6875 -0.875 4.609375q-0.875 1.90625 -2.390625 2.921875q-1.5 1.015625 -3.453125 1.015625zm0 -1.578125q1.5 0 2.59375 -0.796875q1.109375 -0.8125 1.734375 -2.359375q0.625 -1.546875 0.625 -3.8125q0 -2.25 -0.625 -3.796875q-0.625 -1.546875 -1.734375 -2.34375q-1.09375 -0.81248474 -2.59375 -0.81248474q-1.4375 0 -2.5625 0.81248474q-1.125 0.796875 -1.75 2.34375q-0.625 1.546875 -0.625 3.796875q0 2.265625 0.625 3.8125q0.625 1.546875 1.75 2.359375q1.125 0.796875 2.5625 0.796875z" fill-rule="nonzero"/><path fill="#000000" fill-opacity="0.0" d="m537.86615 270.8084l34.92914 0l0 48.472443l-34.92914 0z" fill-rule="evenodd"/><path fill="#b7b7b7" d="m554.80365 302.989q-1.9375 0 -3.453125 -1.015625q-1.515625 -1.015625 -2.375 -2.921875q-0.859375 -1.921875 -0.859375 -4.609375q0 -2.6875 0.859375 -4.59375q0.859375 -1.90625 2.375 -2.921875q1.515625 -1.015625 3.453125 -1.015625q1.953125 0 3.453125 1.015625q1.515625 1.015625 2.390625 2.921875q0.875 1.90625 0.875 4.59375q0 2.6875 -0.875 4.609375q-0.875 1.90625 -2.390625 2.921875q-1.5 1.015625 -3.453125 1.015625zm0 -1.578125q1.5 0 2.59375 -0.796875q1.109375 -0.8125 1.734375 -2.359375q0.625 -1.546875 0.625 -3.8125q0 -2.25 -0.625 -3.796875q-0.625 -1.546875 -1.734375 -2.34375q-1.09375 -0.8125 -2.59375 -0.8125q-1.4375 0 -2.5625 0.8125q-1.125 0.796875 -1.75 2.34375q-0.625 1.546875 -0.625 3.796875q0 2.265625 0.625 3.8125q0.625 1.546875 1.75 2.359375q1.125 0.796875 2.5625 0.796875z" fill-rule="nonzero"/></g></svg>